<svg xmlns="http://www.w3.org/2000/svg" viewBox="-29 109 268 79" role="img" aria-label="M-STYLE">
  <path fill="#eb711c" d="M122.38 187.89c-8.282-.563-13.596-3.673-16.622-9.729-3.507-7.016-2.563-15.516.663-28.78l.084 11 11.642.043-.054-26.145c3.676 0 7.852.669 7.81.808-.237.78-5.057 25.17-6.01 30.416-1.256 6.9-1.32 9.863-.263 12.095 1.528 3.225 7.402 4.33 11.77 2.216 5.843-2.828 12.137-10.238 15.664-18.439 1.572-4.97 4.722-9.456 7.11-14.167 1.985-3.345 1.689.449 5.723-6.349l.367.451c4.25 5.218 4.335 14.223.205 21.775-5.53 10.112-12.7 17.53-20.474 21.19-5.281 2.484-12.485 3.963-17.613 3.614zm-72.464-13.94c.041-.198 2.799-14.876 6.127-32.618s6.073-32.344 6.098-32.448l.044-.19H80.07l-.04.317c-.633 5.354-1.256 10.71-1.882 16.065 6.912 1.855 1.111 25.33.889 25.766l-12.274 23.426-16.921.043zm27.562.17c.044-.26 1.88-12.73 1.941-13.033l1.601-35.715c-.116 0-.208-.047-.206-.106 2.764-5.534 5.61-11.027 8.435-16.531 4.803.009 9.213-.046 13.883.012.095.001-1.3 15.758-1.672 20.324l11.956 5.056-20.993 40.141-14.978.043zm57.221-25.244c-1.802-.6-3.31-1.176-3.46-1.32-.342-.331 1.498-3.762 2.937-5.476 1.385-1.65 4.12-3.807 4.419-3.485.093.1 2.331 3.826 2.568 4.275.088.167.058.207-.345.455-1.12.69-2.077 1.985-3.341 4.526-.44.885-.826 1.617-.858 1.627-.031.01-.895-.26-1.92-.601zm14.241-12.628c-.631-.004 2.613.17 2.696.245.066.06-1.099 2.803-1.24 1.939m-45.373-12.592c0-.062 10.256-16.927 10.364-17.043 5.298-.172 10.623-.077 15.93-.063l-5.289 24.425z"/>
  <path fill="#e21d23" d="M34.458 149.21c-2.788-.764-4.568-2.922-4.677-5.673-.224-5.614 6.444-8.525 10.393-4.538 3.822 3.858 1.082 10.364-4.35 10.332-.518-.003-1.133-.057-1.366-.121"/>
  <path fill="#202020" d="M72.219 161.01c-4.5-.357-10.058-1.903-11.933-3.318-.159-.12-.1-.272 1.682-4.307l1.846-4.182 1.324.653c3.403 1.678 6.392 2.39 10.044 2.393 3.125.003 4.28-.387 4.493-1.516.253-1.35-.82-2.04-4.45-2.863-.722-.164-2.018-.458-2.88-.652-5.406-1.223-7.807-2.356-9.749-4.6-2.957-3.417-2.506-9.562.963-13.111 3.809-3.896 11.312-5.355 19.268-3.746 2.902.587 6.927 2.04 6.76 2.44l-3.316 7.982-.11.268-1.214-.545c-6.087-2.733-12.848-2.647-12.873.164-.012 1.349.86 1.764 5.817 2.766 5.877 1.189 8.425 2.182 10.507 4.095 2.014 1.85 2.926 4.413 2.658 7.468-.642 7.301-8.04 11.468-18.838 10.611zm-101.22-35.128h9.444c3.79 6.105 7.428 12.308 11.285 18.371.056-.002 4.305-7.145 10.978-18.371h9.413c.144 11.486.115 22.973.113 34.46h-10.5a778 778 0 0 0-.126-15.758l-7.471 12.583h-5.12c-2.482-3.976-4.922-7.979-7.438-11.933-.131 5.031-.08 10.073-.08 15.108h-10.499zm135.55 8.975H96.474v-8.974h31.75v8.974h-10.075v25.485H106.55zm37.592 12.826c-2.178-3.648-12.954-21.7-12.954-21.766 0-.02 2.731-.026 6.07-.014l6.07.021c2.362 3.963 4.652 7.97 7.078 11.894 2.425-3.945 4.765-7.954 7.134-11.936h5.535c3.045 0 5.535.021 5.535.047-4.287 7.333-8.63 14.634-12.954 21.945v12.468H144.14zm30.988-21.801h11.599v25.485h15.494v8.974h-27.093zm35.391 0h27.94v8.72h-16.595v4.15h14.563v8.296h-14.563v4.572h17.187v8.721h-28.533z"/>
</svg>